<svg xmlns="http://www.w3.org/2000/svg" width="206.889" height="125.519" viewBox="0 0 206.889 125.519">
  <g id="Group_7" data-name="Group 7" transform="translate(-2248.686 -153.416)">
    <path id="Path_7" data-name="Path 7" d="M2630.178,282.849c19.6-1.129,37.288,13.641,39.67,33.356a38.37,38.37,0,0,1-76.11,9.821C2590.8,301.82,2609.847,283.183,2630.178,282.849Zm-1.667,12.968c-3.774,0-6.852.058-9.926-.028-1.273-.035-1.608.421-1.573,1.619.073,2.509.094,5.025-.009,7.533-.057,1.4.367,1.85,1.792,1.824,4.519-.082,9.041.031,13.56-.044,5.226-.086,6.807-.289,6.52,6.833-.12,2.974-1.213,4.074-4.182,4.1-2.951.027-5.9.06-8.852-.021-1.249-.034-1.615.385-1.594,1.608.064,3.766.048,7.534,0,11.3-.014,1.086.255,1.6,1.464,1.571,2.7-.07,5.4-.06,8.1,0,1.082.023,1.521-.388,1.367-1.425-.23-1.549.268-2.086,1.972-2.241,7.19-.655,10.869-3.58,12.095-9.945a34.668,34.668,0,0,0-.013-12.735c-1-5.484-4.489-8.595-9.956-9.592C2635.463,295.476,2631.629,296.032,2628.511,295.817Zm6.668,45.446c0-1.379-.037-2.76.013-4.138.033-.931-.238-1.362-1.263-1.343-2.82.052-5.642.042-8.463.006-.9-.011-1.212.339-1.2,1.214.028,2.821.037,5.643-.009,8.464-.018,1.034.47,1.272,1.377,1.263,2.758-.028,5.518-.036,8.275,0,.987.015,1.328-.367,1.287-1.333C2635.135,344.023,2635.178,342.642,2635.179,341.263Z" transform="translate(-214.577 -80.523)" fill="#fff"/>
    <path id="Path_8" data-name="Path 8" d="M2375.893,255.242l3.278,7.12c-.745,1.74-2.353,1.1-3.56,1.115-6.067.1-12.136.046-18.2.046q-38.506,0-77.009,0c-.943,0-1.885.024-2.827.037-6.707-.011-13.418.119-20.119-.085-3.964-.121-7.389-2.958-7.28-7.363.253-10.215-.828-20.4-.863-30.606-.006-.476-.011-.952-.015-1.419-.2-2.9.343-5.83-.219-8.731-.982-7.6.767-14.218,6.938-19.218a15.7,15.7,0,0,1,3.009-1.9c1.288-.626.844-1.119.025-1.68a3.311,3.311,0,0,0-1.967-.536c-1.194.011-2.388,0-3.583,0-3.348-.008-3.345-.009-4-3.217-.25-1.23-.53-2.454-.766-3.686-.207-1.082.238-1.74,1.369-1.747,3.9-.023,7.793-.012,11.689-.016,1,0,1.451.532,1.564,1.5a14.981,14.981,0,0,0,1.8,5.515c.2.365.236.945.754.944s.625-.547.808-.935q3.385-7.137,6.762-14.278c2.57-5.444,5.122-10.9,7.7-16.336a9.244,9.244,0,0,1,8.782-5.641c28.525-.794,57.051-.99,85.58-.2,2.827.079,5.653.176,8.48.19a8.9,8.9,0,0,1,8.526,5.433c3.612,7.518,7.142,15.074,10.708,22.613,1.526,3.226,3.059,6.448,4.679,9.863a17.116,17.116,0,0,0,2.747-7.084,1.578,1.578,0,0,1,1.849-1.6q5.561.017,11.125.015c1.3,0,1.851.562,1.564,1.888q-.578,2.668-1.086,5.351a1.593,1.593,0,0,1-1.845,1.444c-1.7-.04-3.394,0-5.09-.009a3.757,3.757,0,0,0-2.168.5c-.845.549-1.056,1.057.046,1.569a14.028,14.028,0,0,1,4.105,2.93H2412.3c-.529-.316-1.034-.854-1.59-.913-4.23-.45-8.448-1.393-12.734-.536.641-1.072,2.3-.824,2.762-2.136,1.745-1.707,1.984-3.72.748-6.335-3.647-7.71-7.436-15.358-10.891-23.153-1.963-4.427-4.983-6.295-9.807-6.274-29.791.131-59.583.126-89.375.139a7.641,7.641,0,0,0-7.43,4.766c-3.819,8.044-7.6,16.108-11.462,24.13a6.6,6.6,0,0,0-.424,5.616,13.274,13.274,0,0,0,3.712,3.239,28.678,28.678,0,0,0-9.892.162,22.226,22.226,0,0,0-8.41,2.473,3.837,3.837,0,0,0-2.146,3.428,93.375,93.375,0,0,1-1.021,9.473c-.5,3.365.174,4.142,3.577,4.6,2.945.4,5.884.151,8.813.364,6.035.439,12.055,1.172,18.1,1.414,6.469.259,11.471,2.678,14.586,8.491a1.576,1.576,0,0,0,1.813.973c.913-.151.918-.847.977-1.569.271-3.311,1.917-4.821,5.222-4.821q29.394,0,58.788,0c3.167,0,4.937,1.5,5.352,4.578.108.8-.066,1.683,1.12,1.83,1.031.128,1.418-.519,1.828-1.281a35.044,35.044,0,0,1,3.687-5.107,52.458,52.458,0,0,0-4.792,17.373,40.272,40.272,0,0,1-1.875-7.974c-.582-3.083-1.643-5.161-5.5-4.993-4.071.176-8.156.04-12.234.04-15.438,0-30.875.028-46.313-.022-2.352-.008-3.863.776-4.785,3.038a11.028,11.028,0,0,0-.5,3.469,4.165,4.165,0,0,0-.738,1.708c-.781,4.332-1.376,8.713-2.484,12.96-.391,1.5-.314,3.061-.928,4.512-1.694,4,.267,6.906,4.594,6.907q30.309.005,60.618,0c1.88,0,3.761-.043,5.641-.066C2371.894,258.4,2374.1,257.677,2375.893,255.242Zm-103.277-21.889v.027c4.7.27,9.389.556,14.086.8,2.336.123,2.731-.27,2.761-2.659.027-2.258-.047-4.519.035-6.774.064-1.771-.784-2.528-2.442-2.609-1.879-.092-3.758-.171-5.636-.283-7.825-.468-15.648-.962-23.474-1.408-1.967-.112-2.485.418-2.51,2.373-.028,2.258-.016,4.517,0,6.775.011,2.212.518,2.772,2.726,2.909C2262.974,232.8,2267.795,233.073,2272.615,233.353Zm2.8,24.458v-.006c4.4,0,8.8-.011,13.195.007,1.276,0,1.818-.208.919-1.571a9.33,9.33,0,0,0-3.939-3.3c-2.154-1.04-4.445-.61-6.671-.8-5.876-.5-11.759-.919-17.643-1.316-1.96-.133-2.352.379-1.966,2.312.184.919.551,1.807.679,2.73.2,1.468.958,1.988,2.421,1.966C2266.739,257.77,2271.076,257.811,2275.411,257.811Z" transform="translate(0 0)" fill="#fff"/>
    <path id="Path_9" data-name="Path 9" d="M2407.065,264.424c4.286-.856,8.5.086,12.734.536.556.059,1.061.6,1.59.913a44.4,44.4,0,0,0-28.373,15.19,61.283,61.283,0,0,0-5.73,8.361,34.968,34.968,0,0,0-3.686,5.107c-.411.762-.8,1.409-1.829,1.281-1.186-.147-1.012-1.027-1.12-1.83-.414-3.074-2.184-4.578-5.352-4.578q-29.394-.005-58.787,0c-3.3,0-4.95,1.51-5.222,4.821-.059.721-.065,1.418-.977,1.568a1.575,1.575,0,0,1-1.812-.973c-3.116-5.813-8.119-8.231-14.586-8.49-6.042-.242-12.062-.975-18.1-1.414-2.929-.213-5.869.032-8.813-.364-3.4-.457-4.078-1.234-3.577-4.6a93.374,93.374,0,0,0,1.021-9.473,3.837,3.837,0,0,1,2.146-3.428,22.223,22.223,0,0,1,8.41-2.473,28.67,28.67,0,0,1,9.893-.161l5.323.161c4.984.782,10.026.951,15.041,1.422,3.792.356,7.613.423,11.4.827,7.023.75,14.071,1.239,21.119,1.39,6.449.138,12.906.23,19.371-.233,5.73-.41,11.47-.681,17.2-1.165,7.466-.631,14.952-1.034,22.426-1.582,1.409-.1,2.8-.427,4.2-.649Z" transform="translate(-9.084 -68.858)" fill="#fff"/>
    <path id="Path_10" data-name="Path 10" d="M2390.421,349.435a10.992,10.992,0,0,1,.5-3.469c.922-2.263,2.432-3.046,4.785-3.039,15.437.05,30.875.024,46.313.022,4.079,0,8.164.136,12.234-.04,3.86-.168,4.921,1.91,5.5,4.993a40.306,40.306,0,0,0,1.875,7.974,50.1,50.1,0,0,0,2.483,17.3c-1.789,2.435-4,3.155-6.986,2.277,1.79-1.073,2.739-2.592,2.294-4.714q-2.23-10.622-4.541-21.227c-.4-1.841-2.083-2.854-3.908-3.193-2.955-.549-5.855.019-8.778.026-15.633.036-31.266.057-46.9-.026C2392.824,346.309,2391.206,347.083,2390.421,349.435Z" transform="translate(-88.217 -117.937)" fill="#fff"/>
    <path id="Path_11" data-name="Path 11" d="M2249.938,344.34c.035,10.209,1.116,20.39.863,30.606-.108,4.406,3.316,7.243,7.28,7.363,6.7.2,13.412.075,20.12.085.032.111.061.223.089.335-.017,1.694-.08,3.39-.037,5.082.031,1.158-.3,1.716-1.588,1.71-8.475-.038-16.949-.026-25.423-.01-.959,0-1.551-.208-1.548-1.343q.052-21.751.074-43.5C2249.768,344.557,2249.879,344.449,2249.938,344.34Z" transform="translate(-0.628 -118.833)" fill="#fff"/>
    <path id="Path_12" data-name="Path 12" d="M2325.28,443.481c-.028-.112-.058-.224-.089-.335.941-.013,1.883-.037,2.825-.037q38.5,0,77.009,0c6.068,0,12.137.055,18.2-.046,1.208-.02,2.816.625,3.56-1.115.337.354.885.694.594,1.24-.281.528-.913.258-1.379.259q-25.7.017-51.4.006Q2349.943,443.457,2325.28,443.481Z" transform="translate(-47.618 -179.585)" fill="#fff"/>
    <path id="Path_13" data-name="Path 13" d="M2249.72,317.459c.563,2.9.015,5.83.219,8.731Q2249.828,321.815,2249.72,317.459Z" transform="translate(-0.644 -102.102)" fill="#fff"/>
    <path id="Path_14" data-name="Path 14" d="M2382.58,354.682c.786-2.352,2.4-3.126,4.87-3.114,15.632.083,31.265.062,46.9.026,2.924-.006,5.824-.575,8.779-.026,1.825.339,3.5,1.352,3.909,3.193q2.33,10.6,4.541,21.227c.445,2.122-.5,3.641-2.294,4.714-1.88.023-3.761.065-5.641.066q-30.309.007-60.618,0c-4.327,0-6.288-2.912-4.594-6.907.615-1.451.537-3.012.928-4.512,1.108-4.247,1.7-8.629,2.484-12.96A4.159,4.159,0,0,1,2382.58,354.682Z" transform="translate(-80.376 -123.184)" fill="#fff"/>
    <path id="Path_15" data-name="Path 15" d="M2310.7,231.712c3.763-2.565,8.043-1.927,12.208-1.938a2.9,2.9,0,0,0,2.818-1.223c1.138-1.586,3.158-1.972,4.984-2.4a1.649,1.649,0,0,0,1.525-1.743,27.531,27.531,0,0,1,.544-3.529c.506-2.577,2.042-4.073,4.615-4.109q9.323-.127,18.65,0c2.806.039,4.284,1.542,4.735,4.389.383,2.417.785,4.833,1.1,7.26.128,1,.5,1.368,1.551,1.363q13.093-.057,26.187,0c1,0,1.455-.249,1.58-1.294.269-2.241.664-4.466.991-6.7.539-3.67,2.082-5.042,5.743-5.048q8.479-.012,16.956,0c3.506.008,4.963,1.283,5.525,4.807.366,2.292.75,4.583,1.046,6.885.129,1.008.531,1.372,1.569,1.347,2.761-.066,5.528.054,8.288-.044a11.092,11.092,0,0,1,8.028,3.087c-.457,1.312-2.12,1.064-2.761,2.136l-6.084.161c-4.794.134-9.569.045-14.386.491-8.273.765-16.626.42-24.95.74a321.425,321.425,0,0,1-39.1-.445c-6.61-.551-13.259.25-19.9-.653-4.073-.554-8.279-.128-12.425-.141l-5.323-.161A13.259,13.259,0,0,1,2310.7,231.712Z" transform="translate(-38.597 -39.392)" fill="#fff"/>
    <path id="Path_16" data-name="Path 16" d="M2334.628,265.217c4.146.014,8.352-.413,12.425.141,6.644.9,13.292.1,19.9.653a321.429,321.429,0,0,0,39.1.445c8.324-.321,16.677.025,24.95-.74,4.817-.446,9.592-.357,14.386-.491-1.4.223-2.795.547-4.2.65-7.474.548-14.959.951-22.425,1.582-5.729.485-11.47.756-17.2,1.165-6.466.463-12.922.371-19.371.233-7.048-.151-14.1-.64-21.119-1.39-3.787-.4-7.607-.471-11.4-.827C2344.654,266.168,2339.612,266,2334.628,265.217Z" transform="translate(-53.491 -69.497)" fill="#fff"/>
    <path id="Path_17" data-name="Path 17" d="M2462.939,179.75c-3.576,0-7.152.033-10.728-.011-1.921-.024-2.887-.931-2.838-2.506.055-1.794,1.237-2.349,2.773-2.375,2.634-.043,5.27-.02,7.9-.021,4.454,0,8.908-.022,13.362.012,1.873.014,2.979.963,3,2.419.021,1.475-1.074,2.45-2.935,2.469C2469.965,179.775,2466.452,179.749,2462.939,179.75Z" transform="translate(-124.909 -13.329)" fill="#fff"/>
  </g>
</svg>
